<svg xmlns="http://www.w3.org/2000/svg" viewBox="0 0 833 501" width="833" height="501">
	<style>
		tspan { white-space:pre }
		.shp0 { fill: #CDA563 } 
		.shp1 { fill: #9f616a } 
		.shp2 { fill: #CDA563 } 
		.shp3 { fill: #2f2e41 } 
		.shp4 { fill: #ffffff } 
		.shp5 { fill: #e5e5e5 } 
		.shp6 { fill: #cbcbcb } 
	</style>
	<path id="Layer" fill-rule="evenodd" class="shp0" d="M43.42 499.24C43.36 498.99 37.98 474.44 48.98 454.05C59.97 433.66 83.44 424.66 83.68 424.57L84.75 424.17L85.01 425.29C85.06 425.53 90.45 450.09 79.45 470.48C68.45 490.87 44.98 499.87 44.75 499.95L43.67 500.36L43.42 499.24ZM83.28 426.9C78.58 428.92 60.02 437.77 50.74 455C41.45 472.22 44.25 492.59 45.14 497.63C49.84 495.61 68.39 486.77 77.69 469.53C86.98 452.31 84.18 431.94 83.28 426.9L83.28 426.9Z" />
	<path id="Layer" class="shp0" d="M71.05 463.33C51.29 475.22 43.68 498.83 43.68 498.83C43.68 498.83 68.1 503.17 87.86 491.28C107.62 479.39 115.24 455.78 115.24 455.78C115.24 455.78 90.81 451.44 71.05 463.33Z" />
	<path id="Layer" class="shp1" d="M370.3 272.74C370.6 271.19 370.55 269.58 370.17 268.05C369.78 266.51 369.07 265.08 368.07 263.85C367.07 262.62 365.81 261.62 364.39 260.93C362.96 260.24 361.4 259.87 359.82 259.85L350.67 236.83L335.32 238.98L348.7 271.3C348.84 273.96 349.95 276.49 351.82 278.39C353.69 280.29 356.2 281.43 358.86 281.61C361.52 281.79 364.15 280.99 366.26 279.35C368.37 277.72 369.81 275.36 370.3 272.74Z" />
	<path id="Layer" class="shp2" d="M342.03 264.66L337.28 253.32L307.66 196.94L309.27 92.6L309.58 92.56C328.53 90.06 341.36 177.39 341.89 181.11L360.61 245.12L365.06 259.23L342.03 264.66Z" />
	<path id="Layer" class="shp1" d="M296.52 484.66L310.92 484.66L317.77 429.11L296.51 429.11L296.52 484.66L296.52 484.66Z" />
	<path id="Layer" class="shp2" d="M292.84 479.96L321.21 479.95L321.21 479.95C323.58 479.95 325.93 480.42 328.13 481.33C330.32 482.24 332.31 483.57 333.99 485.25C335.67 486.93 337 488.92 337.91 491.11C338.82 493.31 339.28 495.66 339.28 498.03L339.28 498.62L292.84 498.62L292.84 479.96Z" />
	<path id="Layer" class="shp1" d="M164.09 462.71L175.91 470.95L213.29 429.29L195.85 417.14L164.09 462.71L164.09 462.71Z" />
	<path id="Layer" class="shp2" d="M163.77 456.76L187.04 472.97L187.04 472.97C188.99 474.33 190.65 476.06 191.93 478.06C193.21 480.06 194.08 482.29 194.5 484.62C194.92 486.96 194.87 489.36 194.36 491.68C193.85 493.99 192.89 496.19 191.54 498.14L191.2 498.62L153.1 472.07L163.77 456.76Z" />
	<path id="Layer" class="shp2" d="M288.6 471.6L287.98 367.39L278.92 301.86L262.02 359.49L261.99 359.54L200.77 448.42L176.94 436.35L177.07 436.04C178.53 432.58 212.83 351.25 222.06 351.25C222.46 351.27 222.86 351.25 223.26 351.19C223.65 351.12 224.04 351 224.41 350.84C224.78 350.68 225.12 350.47 225.44 350.23C225.76 349.98 226.05 349.7 226.3 349.38C229 345.77 226.8 338.1 226.78 338.02C224.14 327.08 230.78 323.35 232.1 322.73L235.65 249.33L236.02 249.36L332.41 256.12L328.37 347.88L319.67 468.11L319.37 468.15L288.6 471.6Z" />
	<path id="Layer" class="shp2" d="M333.88 272.38L333.47 272.35L229.8 263.99L230.06 229.69L235.13 140.13L235.16 140.07L255.82 95.21L270.47 88.58L291.84 87.45L291.89 87.47L311.4 92.3L331.68 237.94L333.88 272.38Z" />
	<path id="Layer" class="shp1" d="M295.19 75.96C281.95 83.2 265.39 78.34 258.15 65.1C250.91 51.86 255.76 35.3 269.01 28.06C282.25 20.82 298.81 25.67 306.05 38.92C313.29 52.16 308.43 68.72 295.19 75.96Z" />
	<path id="Layer" class="shp3" d="M254.65 58.86L254.65 48.23C254.65 48.23 246.07 38.12 255.51 35.58C255.51 35.58 258.08 10.14 280.38 22.01C280.38 22.01 311.25 16.92 307.82 34.73C307.82 34.73 315.54 30.08 312.97 41.96L307.99 61.08C307.99 61.08 310.39 48.45 302.67 46.75L298.39 44.21C298.39 44.21 286.38 56.08 268.37 41.66C268.37 41.66 260.65 39.82 261.51 47.45C262.37 55.09 254.65 58.86 254.65 58.86Z" />
	<path id="Layer" class="shp1" d="M279.26 246.77C279.27 245.18 278.94 243.61 278.29 242.17C277.63 240.73 276.67 239.45 275.47 238.42C274.26 237.38 272.85 236.63 271.32 236.21C269.8 235.78 268.2 235.7 266.63 235.96L253.5 214.96L238.79 219.83L257.76 249.22C258.37 251.82 259.91 254.1 262.1 255.63C264.28 257.17 266.95 257.85 269.6 257.54C272.25 257.24 274.69 255.98 276.47 253.99C278.26 252 279.24 249.43 279.26 246.77L279.26 246.77Z" />
	<path id="Layer" class="shp2" d="M245.34 240.15L221.58 191.91L221.6 191.8C221.7 191.26 231.26 138.16 238.58 118.64C245.94 99 256.01 95.06 256.44 94.9L256.65 94.82L265.68 103.49L253.17 187.01L266.66 227.3L245.34 240.15Z" />
	<path id="Layer" class="shp0" d="M786.21 0L832.21 0L832.21 46L786.21 46L786.21 0Z" />
	<path id="Layer" class="shp0" d="M426.21 179L472.21 179L472.21 225L426.21 225L426.21 179Z" />
	<path id="Layer" class="shp4" d="M452.02 204.84L815.7 204.84L815.7 20.73L452.02 20.73L452.02 204.84Z" />
	<path id="Layer" fill-rule="evenodd" class="shp5" d="M818.7 207.84L449.02 207.84L449.02 17.73L818.7 17.73L818.7 207.84ZM455.02 201.84L812.7 201.84L812.7 23.73L455.02 23.73L455.02 201.84Z" />
	<path id="Layer" class="shp5" d="M495.68 85.32L775.48 85.32L775.48 94.6L495.68 94.6L495.68 85.32Z" />
	<path id="Layer" class="shp5" d="M495.68 107.82L775.48 107.82L775.48 117.1L495.68 117.1L495.68 107.82Z" />
	<path id="Layer" class="shp2" d="M723.48 141.05L775.48 141.05L775.48 149.1L723.48 149.1L723.48 141.05Z" />
	<path id="Layer" class="shp6" d="M382 500.32L1 500.32C0.73 500.32 0.48 500.21 0.29 500.02C0.11 499.84 0 499.58 0 499.32C0 499.05 0.11 498.8 0.29 498.61C0.48 498.42 0.73 498.32 1 498.32L382 498.32C382.27 498.32 382.52 498.42 382.71 498.61C382.89 498.8 383 499.05 383 499.32C383 499.58 382.89 499.84 382.71 500.02C382.52 500.21 382.27 500.32 382 500.32Z" />
</svg>