<svg xmlns="http://www.w3.org/2000/svg" viewBox="0 0 780 580" width="780" height="580">
	<style>
		tspan { white-space:pre }
		.shp0 { fill: #CDA563 } 
		.shp1 { fill: #ffffff } 
		.shp2 { fill: #CDA563 } 
		.shp3 { fill: #ffb7b7 } 
		.shp4 { fill: #cbcbcb } 
		.shp5 { fill: #2f2e41 } 
		.shp6 { fill: #f2f2f2 } 
	</style>
	<path id="ab2e16f2-9798-47da-b25d-769524f3c86f" class="shp0" d="M0.3 19.29L703.88 19.29L703.88 353.15L0.3 353.15L0.3 19.29Z" />
	<path id="bf81c03f-68cf-4889-8697-1102f95f97bb" class="shp1" d="M20.42 47.92L683.76 47.92L683.76 326.47L20.42 326.47L20.42 47.92Z" />
	<path id="f065dccc-d150-492a-a09f-a7f3f89523f0" class="shp2" d="M0 0L703.58 0L703.58 29.89L0 29.89L0 0Z" />
	<path id="bdbbf39c-df25-4682-8b85-5a6af4a1bd14" class="shp1" d="M22.21 23.12C19.15 23.12 16.67 20.64 16.67 17.58C16.67 14.51 19.15 12.04 22.21 12.04C25.28 12.04 27.75 14.51 27.75 17.58C27.75 20.64 25.28 23.12 22.21 23.12Z" />
	<path id="abcd4292-0b1f-4102-9b5e-e8bbd87baabc" class="shp1" d="M43.24 23.12C40.18 23.12 37.7 20.64 37.7 17.58C37.7 14.51 40.18 12.04 43.24 12.04C46.3 12.04 48.78 14.51 48.78 17.58C48.78 20.64 46.3 23.12 43.24 23.12Z" />
	<path id="a3fb731e-8b3d-41ca-96f2-91600dc0b434" class="shp1" d="M64.27 23.12C61.21 23.12 58.73 20.64 58.73 17.58C58.73 14.51 61.21 12.04 64.27 12.04C67.33 12.04 69.81 14.51 69.81 17.58C69.81 20.64 67.33 23.12 64.27 23.12Z" />
	<path id="Layer" class="shp0" d="M402.65 90.27L496.08 90.27L496.08 97.29L402.65 97.29L402.65 90.27Z" />
	<path id="Layer" class="shp2" d="M402.65 110.88L546.92 110.88L546.92 117.9L402.65 117.9L402.65 110.88Z" />
	<path id="Layer" class="shp0" d="M404.15 130.51L521.73 130.51L521.73 137.54L404.15 137.54L404.15 130.51Z" />
	<path id="Layer" class="shp0" d="M402.65 152.05L471.29 152.05L471.29 159.08L402.65 159.08L402.65 152.05Z" />
	<path id="Layer" class="shp2" d="M402.65 173.1L506.25 173.1L506.25 180.12L402.65 180.12L402.65 173.1Z" />
	<path id="Layer" class="shp0" d="M360.07 88.06L371.51 88.06L371.51 99.5L360.07 99.5L360.07 88.06Z" />
	<path id="Layer" class="shp2" d="M360.07 108.67L371.51 108.67L371.51 120.11L360.07 120.11L360.07 108.67Z" />
	<path id="Layer" class="shp0" d="M360.07 128.3L371.51 128.3L371.51 139.74L360.07 139.74L360.07 128.3Z" />
	<path id="Layer" class="shp0" d="M360.07 149.85L371.51 149.85L371.51 161.29L360.07 161.29L360.07 149.85Z" />
	<path id="Layer" class="shp2" d="M360.07 170.89L371.51 170.89L371.51 182.33L360.07 182.33L360.07 170.89Z" />
	<path id="Layer" class="shp0" d="M402.65 194.27L496.08 194.27L496.08 201.29L402.65 201.29L402.65 194.27Z" />
	<path id="Layer" class="shp2" d="M402.65 214.88L546.92 214.88L546.92 221.9L402.65 221.9L402.65 214.88Z" />
	<path id="Layer" class="shp0" d="M404.15 234.51L521.73 234.51L521.73 241.54L404.15 241.54L404.15 234.51Z" />
	<path id="Layer" class="shp0" d="M402.65 256.05L471.29 256.05L471.29 263.08L402.65 263.08L402.65 256.05Z" />
	<path id="Layer" class="shp0" d="M402.65 277.1L506.25 277.1L506.25 284.12L402.65 284.12L402.65 277.1Z" />
	<path id="Layer" class="shp0" d="M360.07 192.06L371.51 192.06L371.51 203.5L360.07 203.5L360.07 192.06Z" />
	<path id="Layer" class="shp2" d="M360.07 212.67L371.51 212.67L371.51 224.11L360.07 224.11L360.07 212.67Z" />
	<path id="Layer" class="shp0" d="M360.07 232.3L371.51 232.3L371.51 243.74L360.07 243.74L360.07 232.3Z" />
	<path id="Layer" class="shp0" d="M360.07 253.85L371.51 253.85L371.51 265.29L360.07 265.29L360.07 253.85Z" />
	<path id="Layer" class="shp0" d="M360.07 274.89L371.51 274.89L371.51 286.33L360.07 286.33L360.07 274.89Z" />
	<path id="Layer" class="shp2" d="M107.11 249.35L200.54 249.35L200.54 256.37L107.11 256.37L107.11 249.35Z" />
	<path id="Layer" class="shp2" d="M94.61 267.59L212.19 267.59L212.19 274.62L94.61 274.62L94.61 267.59Z" />
	<path id="Layer" class="shp2" d="M214.54 160.77C214.54 171.32 211.8 181.7 206.59 190.87C201.38 200.05 193.88 207.72 184.82 213.13C175.76 218.55 165.45 221.52 154.9 221.75C144.35 221.99 133.91 219.49 124.62 214.49L124.61 214.48C105.28 204.07 93.04 184.07 92.55 162.12C92.07 140.17 103.41 119.66 122.26 108.4C141.11 97.14 164.56 96.88 183.65 107.72C202.74 118.55 214.54 138.81 214.54 160.77L214.54 160.77Z" />
	<path id="Layer" class="shp1" d="M153.86 157.81C144.69 157.81 137.27 150.4 137.27 141.23C137.27 132.06 144.69 124.64 153.86 124.64C163.03 124.64 170.44 132.06 170.44 141.23C170.44 150.4 163.03 157.81 153.86 157.81Z" />
	<path id="Layer" class="shp1" d="M182.17 192.07C177.58 193.68 172.86 194.9 168.06 195.71C163.26 196.52 158.4 196.91 153.53 196.9C148.66 196.88 143.81 196.44 139.02 195.6C134.22 194.75 129.51 193.5 124.93 191.85L124.92 191.84L137.27 167.46L170.44 167.46L182.17 192.07Z" />
	<path id="Layer" class="shp3" d="M656.07 567.39L643.81 567.39L637.98 520.11L656.08 520.11L656.07 567.39L656.07 567.39Z" />
	<path id="Layer" class="shp2" d="M659.2 579.28L619.67 579.28L619.67 578.78C619.67 576.76 620.07 574.76 620.84 572.89C621.61 571.02 622.75 569.33 624.18 567.9C625.6 566.47 627.3 565.34 629.17 564.56C631.03 563.79 633.03 563.39 635.05 563.39L635.06 563.39L659.2 563.39L659.2 579.28Z" />
	<path id="Layer" class="shp3" d="M686.02 567.39L698.28 567.39L704.11 520.11L686.01 520.11L686.02 567.39L686.02 567.39Z" />
	<path id="Layer" class="shp2" d="M682.89 563.39L707.03 563.39L707.03 563.39C709.05 563.39 711.06 563.79 712.92 564.56C714.79 565.34 716.48 566.47 717.91 567.9C719.34 569.33 720.48 571.02 721.25 572.89C722.02 574.76 722.42 576.76 722.42 578.78L722.42 579.28L682.89 579.28L682.89 563.39Z" />
	<path id="Layer" class="shp3" d="M653.35 197.85C648.08 208.47 635.24 212.78 624.62 207.51C614.01 202.24 609.7 189.4 614.97 178.78C620.24 168.17 633.08 163.86 643.69 169.13C654.3 174.4 658.62 187.24 653.35 197.85Z" />
	<path id="Layer" class="shp2" d="M618.38 335.73C618.38 335.73 611.61 363.93 615 377.46C618.38 390.99 628.53 483.47 628.53 483.47L635.3 556.78L662.36 559.03L658.98 473.32L662.36 398.89L681.54 471.07L681.54 557.03L710.24 558.16L710.86 446.25C710.86 446.25 713.11 358.29 698.45 347.01C683.79 335.73 681.54 333.48 681.54 333.48L618.38 335.73Z" />
	<path id="Layer" class="shp4" d="M659.24 211.67L684.92 225.21L688.3 342.5C688.3 342.5 673.64 333.48 651.08 344.75C628.53 356.03 613.87 348.14 613.87 348.14L627.4 297.39L621.76 229.72L629.83 222.4L659.24 211.67Z" />
	<path id="Layer" class="shp2" d="M629.83 220.26L625.15 224.08C625.15 224.08 595.82 238.74 594.7 248.89L615 304.15C615 304.15 620.63 316.56 616.12 321.07C611.61 325.58 607.1 336.86 608.23 342.5C609.36 348.14 601.46 371.82 610.48 371.82C619.51 371.82 640.93 317.69 639.81 296.26C638.68 274.83 637.9 218.7 629.83 220.26Z" />
	<path id="Layer" class="shp2" d="M649.54 212.94L659.87 211.23C659.87 211.23 698.22 221.38 703.86 238.29L688.07 277.77C688.07 277.77 699.35 349.94 695.96 349.94L692.58 349.94C692.58 349.94 701.6 356.71 695.96 358.97C690.32 361.22 676.79 379.27 673.41 371.37C670.02 363.48 649.72 269.87 651.98 249.57C654.24 229.27 647.54 215.07 649.54 212.94Z" />
	<path id="Layer" class="shp5" d="M654.03 167.34L655.03 165.32L649.98 162.81C649.98 162.81 644.41 153.74 634.33 156.29C624.25 158.84 619.71 160.36 619.71 160.36L614.68 162.9L617.2 165.41L612.67 166.94L615.7 168.44L612.17 170.47L614.07 180.86C614.07 180.86 617.22 172.98 623.28 175.99C629.34 179 640.43 174.43 640.43 174.43L650.06 193.07C650.06 193.07 652.04 186.54 655.59 188.28C655.59 188.28 664.64 173.87 654.03 167.34Z" />
	<path id="Layer" class="shp3" d="M685.4 365.24C684.84 363.88 684.59 362.41 684.66 360.94C684.73 359.47 685.12 358.04 685.8 356.74C686.49 355.44 687.45 354.3 688.62 353.41C689.79 352.53 691.15 351.9 692.58 351.6L696.92 316.12L711.07 328.16L704.78 359.99C705.14 362.44 704.59 364.94 703.23 367.01C701.87 369.08 699.81 370.58 697.42 371.22C695.03 371.87 692.48 371.62 690.27 370.51C688.05 369.41 686.32 367.53 685.4 365.24L685.4 365.24Z" />
	<path id="Layer" class="shp3" d="M624.89 362.8C625.3 361.38 625.4 359.9 625.17 358.45C624.95 356.99 624.41 355.61 623.59 354.39C622.77 353.17 621.69 352.14 620.43 351.38C619.17 350.62 617.76 350.15 616.3 349.99L608.22 315.18L595.43 328.65L605.06 359.64C604.97 362.11 605.78 364.53 607.35 366.45C608.92 368.36 611.13 369.64 613.58 370.02C616.02 370.41 618.52 369.89 620.61 368.56C622.69 367.23 624.22 365.18 624.89 362.8L624.89 362.8Z" />
	<path id="Layer" class="shp2" d="M685.94 229.1C685.94 229.1 700.6 223.46 705.11 240.38C709.63 257.3 715.26 291.13 715.26 291.13C715.54 309.94 714.54 309.94 715.26 328.35L711.88 345.26L692.71 343.01L693.54 299.94L683.69 256.17L685.94 229.1Z" />
	<path id="Layer" class="shp2" d="M604.85 242.12L597.89 242.87C597.89 242.87 591.31 247.76 591.31 259.04C591.31 270.32 590.18 304.15 590.18 304.15C590.18 304.15 589.54 304.94 594.7 333.48C597.21 347.38 601.54 353.94 601.54 353.94L615.54 340.94L613.87 307.54L618.38 289.49L604.85 242.12Z" />
	<path id="Layer" class="shp4" d="M778.32 579.94L554.32 579.94C554.05 579.94 553.8 579.84 553.61 579.65C553.43 579.46 553.32 579.21 553.32 578.94C553.32 578.68 553.43 578.42 553.61 578.24C553.8 578.05 554.05 577.94 554.32 577.94L778.32 577.94C778.59 577.94 778.84 578.05 779.03 578.24C779.21 578.42 779.32 578.68 779.32 578.94C779.32 579.21 779.21 579.46 779.03 579.65C778.84 579.84 778.59 579.94 778.32 579.94Z" />
	<path id="Layer" class="shp4" d="M312.32 579.94L193.32 579.94C193.05 579.94 192.8 579.84 192.61 579.65C192.43 579.46 192.32 579.21 192.32 578.94C192.32 578.68 192.43 578.42 192.61 578.24C192.8 578.05 193.05 577.94 193.32 577.94L312.32 577.94C312.59 577.94 312.84 578.05 313.03 578.24C313.21 578.42 313.32 578.68 313.32 578.94C313.32 579.21 313.21 579.46 313.03 579.65C312.84 579.84 312.59 579.94 312.32 579.94Z" />
	<path id="Layer" class="shp6" d="M259.41 537.41C239.89 551.95 234.36 577.54 234.36 577.54C234.36 577.54 260.47 579.55 279.98 565.01C299.49 550.46 305.02 524.87 305.02 524.87C305.02 524.87 278.92 522.86 259.41 537.41Z" />
	<path id="Layer" class="shp6" d="M267.53 544.24C258.16 566.69 234.67 578.26 234.67 578.26C234.67 578.26 226.39 553.43 235.77 530.97C245.14 508.51 268.63 496.94 268.63 496.94C268.63 496.94 276.91 521.78 267.53 544.24Z" />
</svg>